<?xml version="1.0" encoding="utf-8"?>
<!-- Generator: Adobe Illustrator 27.6.1, SVG Export Plug-In . SVG Version: 6.00 Build 0)  -->
<svg version="1.1" id="Layer_1" xmlns="http://www.w3.org/2000/svg" xmlns:xlink="http://www.w3.org/1999/xlink" x="0px" y="0px"
	 viewBox="0 0 68.3 68.2" style="enable-background:new 0 0 68.3 68.2;" xml:space="preserve">
<path d="M1.6,66.6c1,1,2.4,1.6,3.8,1.6s2.7-0.5,3.8-1.6l25-25l25,25c1,1,2.4,1.6,3.8,1.6c1.4,0,2.7-0.5,3.8-1.6
	c2.1-2.1,2.1-5.5,0-7.5l-25-25l25-25c2.1-2.1,2.1-5.5,0-7.5c-2.1-2.1-5.4-2.1-7.5,0l-25,25l-25-25c-2.1-2.1-5.4-2.1-7.5,0
	s-2.1,5.5,0,7.5l25,25l-25,25C-0.5,61.2-0.5,64.5,1.6,66.6z"/>
</svg>
