<?xml version="1.0" encoding="utf-8"?>
<!-- Generator: Adobe Illustrator 27.6.1, SVG Export Plug-In . SVG Version: 6.00 Build 0)  -->
<svg version="1.1" id="Layer_1" xmlns="http://www.w3.org/2000/svg" xmlns:xlink="http://www.w3.org/1999/xlink" x="0px" y="0px"
	 viewBox="0 0 313.7 438.9" style="enable-background:new 0 0 313.7 438.9;" xml:space="preserve">
<g>
	<path d="M306.4,160h-21.2v-26.4c0-2-0.8-3.9-2.2-5.2c-1.4-1.4-3.6-2.2-5.3-2.1c-3.8,0.1-88.2,2.8-120.2,31.3
		c-5.4-4.8-12.5-9.2-21.3-13c6.2-7.6,9.8-15.9,11.6-20.9c1-2.8,0.6-6-1.1-8.5c8.4-8.2,12.6-17.1,12.8-17.6l2.6-5.4
		c1.5-3.3,3.2-6.5,4.8-9.7c1.8-3.7,3.7-8.4,1.9-12.7c-0.1-0.2-0.2-0.5-0.4-0.7c5.9-5.7,10-11.6,12.3-15.5
		c3.7-6.2,7.5-12.3,11.5-18.2c6.2-9.2,13.4-20,14.3-21.5c2.5-4.2,1.3-7.7,0.6-9c-1.1-2.2-4.8-4.6-7.3-4.9c-0.8-0.1-1.7,0-2.5,0.2
		c0,0-5.5,1.4-14.2,4.3C153.8,14,92,38.6,77.1,78.5c-0.5-0.1-0.6-0.3-1.7-0.1c-4.1,0-7.6,2.6-10.4,7.7l-1.4,2.2
		c-4,6.4-10.8,17.5-8.4,39.2c-10.8-0.9-18-1.1-18-1.1c-2.1-0.1-3.9,0.7-5.3,2.1c-1.4,1.4-2.2,3.3-2.2,5.2V160H7.3
		c-4,0-7.3,3.3-7.3,7.3v256.5c0,4,3.3,7.3,7.3,7.3h120.8v0.5c0,4,3.3,7.3,7.3,7.3h42.9c4,0,7.3-3.3,7.3-7.3v-0.5h120.8
		c4,0,7.3-3.3,7.3-7.3V167.3C313.7,163.3,310.5,160,306.4,160z M299.1,174.6v215.9H184.2c42-18.1,92.3-13.3,92.9-13.3
		c2.1,0.2,4.1-0.5,5.6-1.8c1.5-1.4,2.4-3.4,2.4-5.4V174.6L299.1,174.6L299.1,174.6z M270.6,141.3v220.9c-18.9-1-66.9-0.5-105.3,21.4
		l-0.5-100.9l0.6-112.6C184.6,150.2,241.9,142.9,270.6,141.3z M72.9,101.5c0.6,1.9,1.2,3.4,1.4,4c1.3,3.2,4.5,5,7.9,4.6
		c3.4-0.5,5.9-3.3,6.2-6.7l0.1-3c-3.3-43.8,70.9-72.6,97-81.3c-1.8,2.7-3.7,5.5-5.5,8.2c-4.1,6.2-8.1,12.5-11.9,18.9
		c-3.1,5.2-9.8,14.7-20.6,20.2c-3.1,1.6-4.6,5.1-3.7,8.4c0.9,3.3,3.9,5.6,7.5,5.4l0.5,0c-1,2-2,3.9-2.9,5.9l-2.6,5.4
		c-0.1,0.1-6.8,14.1-19.3,20.2c-3,1.5-4.7,4.8-4,8.1c0.7,3.3,3.6,5.7,7,5.7l1.1,0c-2.5,5-6.4,11.2-12.1,15.8l-5.1,4.1
		c-2,1.6-10.6,8.2-22.3,14c15.3-40,34.3-68.6,48.3-86.2c2.5-3.2,2-7.8-1.2-10.3c-3.2-2.5-7.7-2-10.3,1.2
		c-14.8,18.5-34.8,48.7-50.8,90.8c-2.1-4.4-4.2-9.8-5.9-16.8C67.1,118.7,69.6,108.3,72.9,101.5z M44.4,141.3
		c3.5,0.2,8.3,0.6,13.6,1.1c3.2,12.4,7.8,22.5,13.6,30.1c-5.7,17.7-10.2,37.2-13.9,61.2c-0.6,4,2.1,7.7,6.1,8.3
		c0.4,0.1,0.8,0.1,1.1,0.1c3.5,0,6.6-2.6,7.2-6.2c3.6-22.8,7.8-41.3,13.1-58.1c19.7-6.9,35.1-18.9,38-21.3l1.2-0.9
		c11.4,4.2,20,9,25.2,14.4l0.6,112.6l-0.5,100.9c-38.4-21.9-86.4-22.4-105.3-21.4L44.4,141.3L44.4,141.3z M29.8,174.6V370
		c0,2.1,0.9,4,2.4,5.4c1.5,1.4,3.6,2.1,5.6,1.8c0.6-0.1,50.9-4.9,92.9,13.3H14.6V174.6H29.8z M14.6,416.5v-11.3h113.5v11.3H14.6z
		 M171,424.3h-28.3v-19.2H171V424.3z M185.6,416.5v-11.3h113.5v11.3H185.6z"/>
	<path d="M57.7,257.6h73c4,0,7.3-3.3,7.3-7.3s-3.3-7.3-7.3-7.3h-73c-4,0-7.3,3.3-7.3,7.3S53.6,257.6,57.7,257.6z"/>
	<path d="M57.7,285h73c4,0,7.3-3.3,7.3-7.3s-3.3-7.3-7.3-7.3h-73c-4,0-7.3,3.3-7.3,7.3C50.4,281.7,53.6,285,57.7,285z"/>
	<path d="M57.7,312.4h73c4,0,7.3-3.3,7.3-7.3s-3.3-7.3-7.3-7.3h-73c-4,0-7.3,3.3-7.3,7.3C50.4,309.1,53.6,312.4,57.7,312.4z"/>
</g>
</svg>
